<svg xmlns="http://www.w3.org/2000/svg" viewBox="0 0 529.16 529.16"><title>eetlijst_-4</title><g id="4df2a479-71b7-4e57-9975-739c2b65e541" data-name="Eetlijst eet"><path d="M270.25,341.08A81.87,81.87,0,1,0,352.12,423,82,82,0,0,0,270.25,341.08Zm36.38,36.09H252.84v32.37h44.31v17.17H252.84v37.6h53.79v17.17H233.87V360.16h72.76Z" fill="#fff"/><path d="M106.7,187.68a81.87,81.87,0,1,0,81.87,81.86A82,82,0,0,0,106.7,187.68Zm32.71,36.09H85.62v32.37h44.31v17.17H85.62v37.6h53.79v17.17H66.65V206.76h72.76Z" fill="#fff"/><path d="M270.25,188.08a81.87,81.87,0,1,0-81.87-81.86A82,82,0,0,0,270.25,188.08ZM233.87,43.44h72.76v17H252.84V92.81h44.31V110H252.84v37.61h53.79v17.16H233.87Z" fill="#fff"/><path d="M0,0V529.16H529.16V0ZM270.25,11.35a94.87,94.87,0,1,1-94.87,94.87A94.87,94.87,0,0,1,270.25,11.35ZM106.7,364.41a94.87,94.87,0,1,1,94.87-94.87A94.86,94.86,0,0,1,106.7,364.41Zm163.55,153.4A94.87,94.87,0,1,1,365.12,423,94.87,94.87,0,0,1,270.25,517.81Zm152.21-153.4a94.87,94.87,0,1,1,94.87-94.87A94.86,94.86,0,0,1,422.46,364.41Z" fill="#fff"/><path d="M422.46,187.68a81.87,81.87,0,1,0,81.87,81.86A81.95,81.95,0,0,0,422.46,187.68Zm32.72,36.09h-53.8v32.37h44.31v17.17H401.38v37.6h53.8v17.17H382.42V206.76h72.76Z" fill="#fff"/></g></svg>