<svg xmlns="http://www.w3.org/2000/svg" viewBox="0 0 529.16 529.16"><title>eetlijst_-2</title><g id="f8e76668-42e4-4b52-a2d9-429f529a7aaa" data-name="Eetlijst eet"><path d="M409.73,168.15a96.44,96.44,0,1,0,96.44,96.43A96.54,96.54,0,0,0,409.73,168.15Zm37.74,43.62H385.42v37.34h51.11v19.81H385.42V312.3h62.05v19.8H363.54v-140h83.93Z" fill="#fff"/><path d="M124.55,168.15A96.44,96.44,0,1,0,221,264.58,96.54,96.54,0,0,0,124.55,168.15Zm37.74,43.62H100.23v37.34h51.12v19.81H100.23V312.3h62.06v19.8H78.35v-140h83.94Z" fill="#fff"/><path d="M0,0V529.16H529.16V0ZM124.55,374A109.44,109.44,0,1,1,234,264.58,109.44,109.44,0,0,1,124.55,374Zm285.18,0A109.44,109.44,0,1,1,519.17,264.58,109.43,109.43,0,0,1,409.73,374Z" fill="#fff"/></g></svg>