<svg xmlns="http://www.w3.org/2000/svg" viewBox="0 0 529.16 529.16"><title>eetlijst_2</title><g id="01999f42-c2c1-4a1c-bda6-4dca68c22eed" data-name="eetlijst kok"><g id="6e53f90b-beca-4cfb-a0ee-65a4cd51d91c" data-name="2"><path d="M391.62,168.76a96.44,96.44,0,1,0,96.43,96.43A96.54,96.54,0,0,0,391.62,168.76Zm37.74,43.62H367.3v37.35h51.12v19.8H367.3v43.38h62.06v19.81H345.43v-140h83.93Z" fill="#fff"/><path d="M0,0V529.16H529.16V0ZM137.55,373.4A109.44,109.44,0,1,1,247,264,109.43,109.43,0,0,1,137.55,373.4Zm254.07,1.23A109.44,109.44,0,1,1,501.05,265.19,109.44,109.44,0,0,1,391.62,374.63Z" fill="#fff"/><path d="M137.55,167.53A96.44,96.44,0,1,0,234,264,96.55,96.55,0,0,0,137.55,167.53Zm25,166.41-55.46-63.37v63.37H85.2V194h21.88v57.72L152,194h27.54l-51.3,67.34,61.68,72.61Z" fill="#fff"/></g></g></svg>