<svg id="9d354827-1612-4749-84de-2aedd81f7201" data-name="Eetlijst Algemeen\" xmlns="http://www.w3.org/2000/svg" viewBox="0 0 529.16 529.16"><title>eetlijst_logo</title><g id="55061ba0-a959-4621-a93d-72c0702a3234" data-name="Eetlijst logo"><path d="M32.09,1.06H364.76V61.41H103.58V216.53H353.91v60.73H103.72V467.77H371V528.1H32.09Z" fill="#fff"/><path d="M496.93,139.35c-2.17,39.06-29.78,67-67.53,66.8-39.07-.18-67-29.34-66.8-67.08.18-39.07,29.34-67,67.08-66.81C468.75,72.44,495.06,101.6,496.93,139.35Zm-47.86,22.38H435c-15,0-14.85,0-14.7-15.2,0-4.13,1.2-5.83,5.53-5.66,6.8.28,13.63.08,20.64.08v-7.12c-6.8,0-13.1-.47-19.29.13-6.77.65-7-2.94-6.9-8,.11-4.78-.38-8.85,6.72-8.2,6.91.64,13.93.14,21.34.14-.23-3-.37-4.88-.5-6.55H412.6v57.13h36.47Z" fill="#fff"/><path d="M193.69,441.92c-40.85-2.62-67-32-66.42-67.91.71-40.87,31.55-67,67.47-66.42,40.87.7,67,31.55,66.43,67.46C260.46,415.93,229.64,440.43,193.69,441.92Zm20.42-44.87h-14c-15.52,0-15.38,0-15.18-15.32.05-4.29,1.51-5.68,5.68-5.53,6.79.26,13.6.07,20.66.07v-7.12c-7.19,0-14-.2-20.81.08-4.34.18-5.91-1.52-5.47-5.67a21.76,21.76,0,0,0,0-4.84c-.47-4.26,1.35-5.72,5.56-5.57,7.2.26,14.42.08,22,.08v-6.72H177.11v57.25h36.7C213.91,401.63,214,399.89,214.11,397.05Z" fill="#fff"/><path d="M194.13,206.73c-38.74-1.67-67.31-29.86-67.08-67.76.22-39.16,30.08-67.26,67.56-66.94,38.6.33,66.78,29.45,66.79,67.12C261.41,177.51,232.42,205.21,194.13,206.73ZM221.19,168c-10.46-10.09-20.25-19.52-29.63-28.58l25.08-28.18c-4.67-1-9.46-.72-13.82,4-5.67,6.07-12,11.52-19.38,18.48v-22.2H176v56.76h7.84V142.3c8,8,15.38,14.86,22.14,22.3C210.19,169.2,214.73,169.28,221.19,168Z" fill="#fff"/><path d="M497.07,374.32c-1.43,38-28.8,67.33-67.47,67.39-38.36.05-67.28-29-67.24-67.27,0-37.74,28.3-66.79,66.82-67.09C466.75,307.06,495.28,335.25,497.07,374.32Zm-78-5.51v-22h-7.71v56.77h7.83V377.2c8.13,8.27,15.44,15.22,22.15,22.71,4.16,4.64,8.73,4.68,15.2,3.41L426.9,374.85l24.94-28c-7.27-1.54-8.21-1.33-13.59,3.76C432.25,356.25,426.28,362,419.05,368.81Z" fill="#fff"/></g></svg>