<svg xmlns="http://www.w3.org/2000/svg" viewBox="0 0 529.16 529.16"><title>eetlijst_-5</title><g id="44c05887-ed7c-42a5-b4fe-8f7c45661c04" data-name="Eetlijst eet"><path d="M270.25,329.72a81.87,81.87,0,1,0,81.87,81.87A82,82,0,0,0,270.25,329.72Zm56.83,94.17H282.55v44.52H258V423.89H213.42v-24.6H258V354.76h24.6v44.53h44.53Z" fill="#fff"/><path d="M106.7,188.73a81.87,81.87,0,1,0,81.87,81.86A82,82,0,0,0,106.7,188.73Zm32.71,36.09H85.62v32.37h44.31v17.17H85.62V312h53.79v17.17H66.65V207.81h72.76Z" fill="#fff"/><path d="M257.25,199.44a81.87,81.87,0,1,0-81.87-81.86A82,82,0,0,0,257.25,199.44ZM220.87,54.8h72.76v17H239.84v32.37h44.31v17.17H239.84v37.6h53.79v17.17H220.87Z" fill="#fff"/><path d="M0,0V529.16H529.16V0ZM257.25,22.71a94.87,94.87,0,1,1-94.87,94.87A94.87,94.87,0,0,1,257.25,22.71ZM106.7,365.46a94.87,94.87,0,1,1,94.87-94.87A94.87,94.87,0,0,1,106.7,365.46Zm163.55,141a94.87,94.87,0,1,1,94.87-94.86A94.87,94.87,0,0,1,270.25,506.45Zm152.21-141a94.87,94.87,0,1,1,94.87-94.87A94.86,94.86,0,0,1,422.46,365.46Z" fill="#fff"/><path d="M422.46,188.73a81.87,81.87,0,1,0,81.87,81.86A81.95,81.95,0,0,0,422.46,188.73Zm32.72,36.09H401.39v32.37h44.3v17.17h-44.3V312h53.79v17.17H382.42V207.81h72.76Z" fill="#fff"/></g></svg>