<svg id="06867d7b-9ec9-4ee5-8861-add4b4117efd" data-name="Eetlijst Algemeen\" xmlns="http://www.w3.org/2000/svg" viewBox="0 0 529.16 529.16"><title>eetlijst_0</title><path id="ffa6b636-5d45-4278-86b9-689d0afd547e" data-name="niet" d="M0,1.06V530.23H529.16V1.06ZM410.88,385c7.59,9.66,15.87,18.63,15.87,31.06,0,18.63-14.49,34.5-33.12,34.5-20,0-33.13-20-44.86-34.5L264.58,312.54,180.39,416.06c-11.73,14.49-24.84,34.5-44.86,34.5-18.63,0-33.12-15.87-33.12-34.5,0-12.43,8.28-21.4,15.87-31.06L219.73,264.93,118.28,144.85c-7.59-9.66-15.87-18.63-15.87-31,0-18.63,14.49-35.2,33.12-35.2,20,0,33.13,20.71,44.86,35.2l84.19,103.51L348.77,113.8c11.73-14.49,24.84-35.2,44.86-35.2,18.63,0,33.12,16.57,33.12,35.2,0,12.42-8.28,21.39-15.87,31.05L309.44,264.93Z" fill="#fff"/></svg>