<svg id="4026fd6a-da8c-4914-b174-f9266549ba39" data-name="Eetlijst Algemeen\" xmlns="http://www.w3.org/2000/svg" viewBox="0 0 529.16 529.16"><title>eetlijst_none</title><path id="116f00e8-df91-4765-a1c2-7a14e9536828" data-name="none" d="M0,1.06V530.23H529.16V1.06ZM250.83,427.83a33.5,33.5,0,1,1,33.5-33.5A33.5,33.5,0,0,1,250.83,427.83Zm134-276.5c-5.5,26.5-21,54.5-47,83.5l-9,9c-12.5,12.5-22.5,25-30,38.5-9.5,17.5-15,36-16,55-6-3-16.5-7-31.5-7-14,0-24,3.5-30,7a178.31,178.31,0,0,1,23.5-80c9.5-17.5,22.5-34,38-50,3-2.5,5.5-5,7-6.5,16-18,27-34.5,32-50,5.5-15.5,4-29-3.5-39-6-8.5-16.5-14.5-29.5-18a92,92,0,0,0-20.5-2.5,74.48,74.48,0,0,0-21.5,3c-12,3-22,8.5-29,16.5-8.5,9.5-13.5,22-14,37.5h-61.5c1-26.5,9.5-50,25-68.5,15-18,36-31,61-37.5a154.37,154.37,0,0,1,40-5.5c42,0,80.5,17,101.5,45C384.33,101.33,389.83,125.83,384.83,151.33Z" fill="#fff"/></svg>