<?xml version="1.0" encoding="UTF-8"?>
<svg id="Eetlijst_eet" data-name="Eetlijst eet" xmlns="http://www.w3.org/2000/svg" viewBox="0 0 529.16 529.16">
  <defs>
    <style>
      .cls-1 {
        fill: #fff;
      }
    </style>
  </defs>
  <path class="cls-1" d="M0,0V529.16H529.16V0H0ZM381.96,145.34c-19.92-16.49-42.54-24.74-67.84-24.74-27.43,0-50.45,6.61-69.07,19.84-11.11,7.84-21.15,18.94-30.13,33.31-9.15,14.86-14.53,28.99-16.17,42.37h167.04l-6.61,32.82H194.83c-.16,3.43-.24,6.7-.24,9.8,0,12.58,.08,20.08,.24,22.53h157.73l-6.86,32.82H199.98c6.86,37.39,23.35,63.93,49.48,79.6,18.77,11.27,39.1,16.9,60.99,16.9,30.53,0,54.37-8,71.52-24v50.45c-20.41,9.47-42.95,14.21-67.6,14.21-73.81,0-123.69-30.7-149.65-92.09-5.23-12.41-9.72-27.43-13.47-45.07h-37.47l6.86-32.82h25.72c-.49-6.86-.73-14.29-.73-22.29,0-3.26,.08-6.61,.25-10.04h-32.09l6.86-32.82h28.41c10.12-53.23,36.49-91.44,79.11-114.63,26.29-14.37,55.27-21.55,86.95-21.55s55.92,6.61,76.66,19.84l-9.8,45.56Z"/>
</svg>