<?xml version="1.0" encoding="UTF-8"?>
<svg id="Eetlijst_eet" data-name="Eetlijst eet" xmlns="http://www.w3.org/2000/svg" viewBox="0 0 529.16 529.16">
  <defs>
    <style>
      .cls-1 {
        fill: #fff;
      }
    </style>
  </defs>
  <g>
    <path class="cls-1" d="M112.03,188.73c-45.14,0-81.87,36.73-81.87,81.87s36.73,81.87,81.87,81.87,81.87-36.73,81.87-81.87-36.73-81.87-81.87-81.87Zm32.71,36.09h-53.79v32.37h44.31v17.17h-44.31v37.6h53.79v17.17H71.98v-121.32h72.76v17Z"/>
    <path class="cls-1" d="M0,0V529.16H529.16V0H0ZM112.03,365.46c-52.39,0-94.87-42.47-94.87-94.87s42.47-94.87,94.87-94.87,94.87,42.47,94.87,94.87-42.47,94.87-94.87,94.87Zm152.56-153.02c-52.39,0-94.87-42.47-94.87-94.87S212.19,22.71,264.58,22.71s94.87,42.47,94.87,94.87-42.47,94.87-94.87,94.87Zm163.21,153.02c-52.39,0-94.87-42.47-94.87-94.87s42.47-94.87,94.87-94.87,94.87,42.47,94.87,94.87-42.47,94.87-94.87,94.87Z"/>
    <path class="cls-1" d="M427.79,188.73c-45.14,0-81.87,36.73-81.87,81.87s36.73,81.87,81.87,81.87,81.87-36.73,81.87-81.87-36.73-81.87-81.87-81.87Zm32.71,36.09h-53.79v32.37h44.31v17.17h-44.31v37.6h53.79v17.17h-72.76v-121.32h72.76v17Z"/>
  </g>
  <path class="cls-1" d="M264.58,35.71c-45.14,0-81.87,36.73-81.87,81.87s36.73,81.87,81.87,81.87,81.87-36.73,81.87-81.87-36.73-81.87-81.87-81.87Zm29.66,42.7c-6.49-5.37-13.85-8.06-22.1-8.06-8.93,0-16.43,2.15-22.5,6.46-3.62,2.55-6.89,6.17-9.81,10.85-2.98,4.84-4.73,9.44-5.26,13.8h54.4l-2.15,10.69h-53.53c-.05,1.12-.08,2.18-.08,3.19,0,4.1,.03,6.54,.08,7.34h51.37l-2.23,10.69h-47.46c2.23,12.18,7.6,20.82,16.11,25.93,6.11,3.67,12.74,5.5,19.86,5.5,9.94,0,17.71-2.6,23.29-7.82v16.43c-6.65,3.08-13.99,4.63-22.02,4.63-24.04,0-40.28-10-48.74-29.99-1.7-4.04-3.16-8.93-4.39-14.68h-12.2l2.23-10.69h8.38c-.16-2.23-.24-4.65-.24-7.26,0-1.06,.03-2.15,.08-3.27h-10.45l2.23-10.69h9.25c3.3-17.34,11.89-29.78,25.77-37.33,8.56-4.68,18-7.02,28.32-7.02s18.21,2.15,24.97,6.46l-3.19,14.84Z"/>
</svg>