<svg xmlns="http://www.w3.org/2000/svg" viewBox="0 0 529.16 529.16"><title>eetlijst_5</title><g id="c5d765e7-0acf-439e-8eb1-c3e8732b60b3" data-name="eetlijst kok"><path d="M106.7,188.73a81.87,81.87,0,1,0,81.87,81.86A82,82,0,0,0,106.7,188.73Zm32.71,36.09H85.62v32.37h44.31v17.17H85.62V312h53.79v17.17H66.65V207.81h72.76Z" fill="#fff"/><path d="M264.58,199.44a81.87,81.87,0,1,0-81.87-81.86A82,82,0,0,0,264.58,199.44Zm-40-144.64h19v50l38.91-50h23.88l-44.48,58.36,53.47,63H291.57L243.5,121.17v54.94h-19Z" fill="#fff"/><path d="M270.25,329.72a81.87,81.87,0,1,0,81.87,81.87A82,82,0,0,0,270.25,329.72Zm56.83,94.17H282.55v44.52H258V423.89H213.42v-24.6H258V354.76h24.6v44.53h44.53Z" fill="#fff"/><path d="M422.46,188.73a81.87,81.87,0,1,0,81.87,81.86A81.95,81.95,0,0,0,422.46,188.73Zm32.72,36.09h-53.8v32.37h44.31v17.17H401.38V312h53.8v17.17H382.42V207.81h72.76Z" fill="#fff"/><path d="M0,0V529.16H529.16V0ZM264.58,22.71a94.87,94.87,0,1,1-94.87,94.87A94.86,94.86,0,0,1,264.58,22.71ZM106.7,365.46a94.87,94.87,0,1,1,94.87-94.87A94.86,94.86,0,0,1,106.7,365.46Zm163.55,141a94.87,94.87,0,1,1,94.87-94.86A94.87,94.87,0,0,1,270.25,506.45Zm152.21-141a94.87,94.87,0,1,1,94.87-94.87A94.86,94.86,0,0,1,422.46,365.46Z" fill="#fff"/></g></svg>