<svg xmlns="http://www.w3.org/2000/svg" viewBox="0 0 529.16 529.16"><title>eetlijst_3</title><g id="d914b624-3d07-4021-aff3-cbece165e7c5" data-name="eetlijst kok"><g id="1f9bf2a8-9e5f-4578-8957-99e20c3e5b72" data-name="3"><path d="M422.46,182.71a81.87,81.87,0,1,0,81.87,81.87A82,82,0,0,0,422.46,182.71Zm32.72,36.09h-53.8v32.38h44.31v17.16H401.38V306h53.8v17.17H382.42V201.8h72.76Z" fill="#fff"/><path d="M106.7,182.71a81.87,81.87,0,1,0,81.87,81.87A82,82,0,0,0,106.7,182.71Zm32.71,36.09H85.62v32.38h44.31v17.16H85.62V306h53.79v17.17H66.65V201.8h72.76Z" fill="#fff"/><path d="M264.58,29.7a81.87,81.87,0,1,0,81.87,81.86A82,82,0,0,0,264.58,29.7Zm27,140.4L243.5,115.16V170.1h-19V48.78h19v50l38.92-50h23.87l-44.48,58.37,53.47,62.95Z" fill="#fff"/><path d="M0,0V529.16H529.16V0ZM106.7,359.45a94.87,94.87,0,1,1,94.87-94.87A94.86,94.86,0,0,1,106.7,359.45Zm63-247.89a94.87,94.87,0,1,1,94.87,94.87A94.87,94.87,0,0,1,169.71,111.56ZM422.46,359.45a94.87,94.87,0,1,1,94.87-94.87A94.86,94.86,0,0,1,422.46,359.45Z" fill="#fff"/></g></g></svg>