<?xml version="1.0" encoding="UTF-8"?>
<svg id="Eetlijst_eet" data-name="Eetlijst eet" xmlns="http://www.w3.org/2000/svg" viewBox="0 0 529.16 529.16">
  <defs>
    <style>
      .cls-1 {
        fill: #fff;
      }
    </style>
  </defs>
  <g>
    <path class="cls-1" d="M409.73,168.15c-53.17,0-96.43,43.26-96.43,96.43s43.26,96.43,96.43,96.43,96.43-43.26,96.43-96.43-43.26-96.43-96.43-96.43Zm37.74,43.62h-62.05v37.35h51.11v19.8h-51.11v43.38h62.05v19.8h-83.93V192.15h83.93v19.62Z"/>
    <path class="cls-1" d="M0,0V529.16H529.16V0H0ZM124.55,374.02c-60.44,0-109.43-49-109.43-109.43s49-109.43,109.43-109.43,109.43,49,109.43,109.43-49,109.43-109.43,109.43Zm285.19,0c-60.44,0-109.43-49-109.43-109.43s49-109.43,109.43-109.43,109.43,49,109.43,109.43-49,109.43-109.43,109.43Z"/>
  </g>
  <path class="cls-1" d="M124.55,168.15c-53.17,0-96.43,43.26-96.43,96.43s43.26,96.43,96.43,96.43,96.43-43.26,96.43-96.43-43.26-96.43-96.43-96.43Zm34.94,50.3c-7.64-6.33-16.32-9.49-26.03-9.49-10.52,0-19.36,2.54-26.5,7.61-4.26,3.01-8.11,7.27-11.56,12.78-3.51,5.7-5.58,11.12-6.2,16.26h64.08l-2.54,12.59h-63.05c-.06,1.32-.09,2.57-.09,3.76,0,4.82,.03,7.71,.09,8.64h60.51l-2.63,12.59h-55.91c2.63,14.35,8.96,24.52,18.98,30.54,7.2,4.32,15,6.48,23.4,6.48,11.71,0,20.86-3.07,27.44-9.21v19.36c-7.83,3.63-16.48,5.45-25.93,5.45-28.32,0-47.45-11.78-57.41-35.33-2.01-4.76-3.73-10.52-5.17-17.29h-14.38l2.63-12.59h9.87c-.19-2.63-.28-5.48-.28-8.55,0-1.25,.03-2.54,.09-3.85h-12.31l2.63-12.59h10.9c3.88-20.42,14-35.08,30.35-43.98,10.08-5.51,21.2-8.27,33.36-8.27s21.45,2.54,29.41,7.61l-3.76,17.48Z"/>
</svg>