<svg xmlns="http://www.w3.org/2000/svg" viewBox="0 0 529.16 529.16"><title>eetlijst_-3</title><g id="8eeba048-f9fc-4480-983a-bbe36a8b6be4" data-name="Eetlijst eet"><path d="M264.58,35.71a81.87,81.87,0,1,0,81.87,81.87A82,82,0,0,0,264.58,35.71ZM301,71.8H247.17v32.37h44.31v17.17H247.17v37.6H301v17.17H228.2V54.8H301Z" fill="#fff"/><path d="M112,188.73a81.87,81.87,0,1,0,81.86,81.86A82,82,0,0,0,112,188.73Zm32.71,36.09H91v32.37h44.3v17.17H91V312h53.79v17.17H72V207.81h72.76Z" fill="#fff"/><path d="M0,0V529.16H529.16V0ZM112,365.46a94.87,94.87,0,1,1,94.86-94.87A94.86,94.86,0,0,1,112,365.46Zm152.55-153a94.87,94.87,0,1,1,94.87-94.86A94.87,94.87,0,0,1,264.58,212.44Zm163.21,153a94.87,94.87,0,1,1,94.87-94.87A94.87,94.87,0,0,1,427.79,365.46Z" fill="#fff"/><path d="M427.79,188.73a81.87,81.87,0,1,0,81.87,81.86A82,82,0,0,0,427.79,188.73Zm32.71,36.09H406.71v32.37H451v17.17H406.71V312H460.5v17.17H387.75V207.81H460.5Z" fill="#fff"/></g></svg>